<?xml version="1.0" encoding="UTF-8"?>
<svg version="1.1" xmlns="http://www.w3.org/2000/svg" width="1024" height="1024">
<path d="M0 0 C337.92 0 675.84 0 1024 0 C1024 337.92 1024 675.84 1024 1024 C686.08 1024 348.16 1024 0 1024 C0 686.08 0 348.16 0 0 Z " fill="#FEFEFE" transform="translate(0,0)"/>
<path d="M0 0 C3.56588446 3.14347633 7.01875269 6.39582445 10.46044922 9.67431641 C11.23001953 10.37943359 11.99958984 11.08455078 12.79248047 11.81103516 C31.71921112 29.71469929 43.40396174 53.51158387 50.71044922 78.17431641 C50.95698242 78.99198486 51.20351563 79.80965332 51.45751953 80.65209961 C55.3880492 94.51904089 55.74580427 108.34610101 55.65576172 122.63916016 C55.65202064 124.41133971 55.64917886 126.18352136 55.64718628 127.95570374 C55.63963588 132.56694488 55.62006382 137.17805528 55.59777832 141.78924561 C55.57713214 146.51589185 55.56814488 151.24255971 55.55810547 155.96923828 C55.5368077 165.20432103 55.50277884 174.43930775 55.46044922 183.67431641 C56.35270706 183.66661224 57.2449649 183.65890808 58.16426086 183.65097046 C59.33490585 183.64497833 60.50555084 183.63898621 61.71166992 183.6328125 C63.45224419 183.62125626 63.45224419 183.62125626 65.22798157 183.60946655 C78.35537459 183.87282867 89.94992331 190.68520227 99.35888672 199.41259766 C107.66506702 208.35177683 113.63378055 220.42130952 113.55810547 232.75634766 C113.55488281 233.68769531 113.55166016 234.61904297 113.54833984 235.57861328 C113.53996094 236.53832031 113.53158203 237.49802734 113.52294922 238.48681641 C113.5184375 239.46585937 113.51392578 240.44490234 113.50927734 241.45361328 C113.49753605 243.86057751 113.48111341 246.26741498 113.46044922 248.67431641 C114.18071289 248.51495605 114.90097656 248.3555957 115.64306641 248.19140625 C147.05574437 242.4260638 180.54424598 254.03944254 206.75732422 270.77978516 C214.98945335 276.60506297 222.43297686 283.45691237 229.46044922 290.67431641 C229.97212646 291.16480469 230.48380371 291.65529297 231.01098633 292.16064453 C235.30538792 296.3135792 238.92253023 300.65236966 242.33544922 305.54931641 C242.84865723 306.28472656 243.36186523 307.02013672 243.890625 307.77783203 C266.12399965 340.28074365 273.54078881 378.40915993 266.71826172 417.01806641 C261.87496261 442.22849114 250.67561341 464.71618388 233.46044922 483.67431641 C232.58880128 484.72140058 231.72159718 485.77220008 230.85888672 486.82666016 C227.70401475 490.57242834 224.2367445 493.57235956 220.46044922 496.67431641 C219.52201172 497.45033203 218.58357422 498.22634766 217.61669922 499.02587891 C202.521895 511.22196539 185.4303436 519.51930362 166.83544922 524.92431641 C165.98893799 525.17076904 165.14242676 525.41722168 164.27026367 525.67114258 C135.61472521 533.65078189 105.30773285 531.18577729 77.82739258 520.40478516 C69.54078968 516.99652181 69.54078968 516.99652181 60.79248047 517.38134766 C59.96103516 517.74615234 59.12958984 518.11095703 58.27294922 518.48681641 C48.62444531 522.69569134 38.11597092 522.96957862 27.74694824 522.92828369 C26.52417978 522.93140367 25.30141131 522.93452365 24.04158926 522.93773818 C20.68271791 522.94428757 17.32407348 522.94199526 13.9652164 522.93576574 C10.32916444 522.93121145 6.69313127 522.93823967 3.05708313 522.94372559 C-4.05205667 522.95258965 -11.16115408 522.95071094 -18.2702955 522.9449003 C-24.05127901 522.94037202 -29.8322507 522.93977594 -35.61323547 522.94194794 C-36.43797793 522.9422544 -37.26272039 522.94256087 -38.11245504 522.94287662 C-39.78823086 522.94351611 -41.46400668 522.94416454 -43.13978249 522.9448218 C-58.83046493 522.95051635 -74.52112395 522.94398097 -90.21180254 522.93322107 C-103.65683842 522.92428636 -117.10183975 522.92583865 -130.546875 522.93505859 C-146.18381554 522.94577672 -161.82073558 522.94996711 -177.45767927 522.94383407 C-179.12707487 522.94319701 -180.79647048 522.94256827 -182.46586609 522.94194794 C-183.28710666 522.94163939 -184.10834723 522.94133083 -184.95447388 522.94101293 C-190.72431839 522.93929062 -196.49414983 522.94219108 -202.26399231 522.94690704 C-209.30149815 522.95253303 -216.33895942 522.95096343 -223.37646019 522.94034556 C-226.96277704 522.93511189 -230.54901973 522.93299248 -234.13533592 522.93964386 C-238.03228192 522.94676171 -241.92910813 522.93822702 -245.8260498 522.92828369 C-246.94630381 522.93274513 -248.06655782 522.93720658 -249.22075891 522.94180322 C-259.95869939 522.88887107 -269.98236775 521.79844981 -279.53955078 516.67431641 C-280.77511719 516.02462891 -280.77511719 516.02462891 -282.03564453 515.36181641 C-295.21477299 507.9798997 -303.31656816 496.82843058 -307.81298828 482.49853516 C-309.43999169 476.17421544 -309.68800738 470.19191521 -309.6867218 463.70115662 C-309.69039849 462.70064854 -309.69407518 461.70014047 -309.69786328 460.66931397 C-309.7088712 457.31868129 -309.71273906 453.96807967 -309.71655273 450.61743164 C-309.72281958 448.21402387 -309.72946657 445.81061706 -309.73646545 443.4072113 C-309.7556677 436.19713172 -309.76628979 428.98705473 -309.77519324 421.77695736 C-309.77958358 418.37613068 -309.78494842 414.97530553 -309.79018211 411.57448006 C-309.80718918 400.26026832 -309.82168175 388.94605753 -309.82893085 377.63183498 C-309.83084054 374.69897396 -309.8327609 371.76611295 -309.8347168 368.83325195 C-309.83520054 368.10436376 -309.83568428 367.37547557 -309.83618268 366.62449986 C-309.84447716 354.82573773 -309.86980655 343.02707716 -309.90229747 331.22835933 C-309.93542922 319.09742147 -309.9533851 306.96653512 -309.9565751 294.8355518 C-309.95873447 288.03150792 -309.96739885 281.2276122 -309.99303627 274.42361259 C-310.01636487 268.01890063 -310.02053074 261.61445457 -310.01027489 255.20971107 C-310.00978059 252.86566151 -310.01606962 250.52159864 -310.02983093 248.17758942 C-310.13979854 228.32771181 -307.85106742 212.89830579 -293.79736328 197.77587891 C-283.91852191 188.58069438 -271.16903512 183.47603879 -257.72705078 183.61181641 C-256.56560547 183.62083984 -255.40416016 183.62986328 -254.20751953 183.63916016 C-252.886875 183.6565625 -252.886875 183.6565625 -251.53955078 183.67431641 C-251.54843323 182.66859085 -251.55731567 181.6628653 -251.56646729 180.62666321 C-251.64828017 171.05305952 -251.70785976 161.47952862 -251.74679947 151.90565205 C-251.76749311 146.98602307 -251.79546834 142.06668083 -251.84130859 137.1472168 C-251.88542825 132.38145911 -251.90882399 127.61597356 -251.91905975 122.85002708 C-251.92633461 121.05034296 -251.94053159 119.25067022 -251.96247101 117.45110512 C-252.26558056 91.50813265 -246.09381284 67.35408682 -233.53955078 44.67431641 C-233.17958008 44.02301758 -232.81960938 43.37171875 -232.44873047 42.70068359 C-227.5702256 33.99184068 -222.15296257 26.18798321 -215.53955078 18.67431641 C-214.83185547 17.84544922 -214.12416016 17.01658203 -213.39501953 16.16259766 C-188.52277414 -12.38446597 -153.49025898 -30.89861202 -115.63183594 -34.12060547 C-73.81106749 -36.89412872 -32.37564457 -27.87817159 0 0 Z " fill="#010101" transform="translate(555.53955078125,153.32568359375)"/>
<path d="M0 0 C1.34559396 -0.00461088 2.69118288 -0.01096507 4.03676128 -0.01890898 C7.728672 -0.03560005 11.42016889 -0.0273572 15.11208105 -0.0149641 C19.09579611 -0.00591493 23.07943995 -0.01988266 27.06314087 -0.03088379 C34.86495535 -0.04867505 42.66661595 -0.04482635 50.46843648 -0.03323323 C56.80883501 -0.02420156 63.14919039 -0.02297375 69.48959351 -0.02732849 C70.39181599 -0.02794142 71.29403848 -0.02855436 72.22360104 -0.02918586 C74.05641946 -0.03046476 75.88923787 -0.03176161 77.72205627 -0.03307623 C94.91047534 -0.0444838 112.09880909 -0.03136554 129.28721416 -0.00987476 C144.03730334 0.00799638 158.78726661 0.00489233 173.53735352 -0.0135498 C190.66404831 -0.03495338 207.79066831 -0.04338515 224.91737461 -0.03110075 C226.74346986 -0.02982655 228.56956513 -0.02856906 230.3956604 -0.02732849 C231.29414615 -0.02671139 232.1926319 -0.02609429 233.11834449 -0.02545848 C239.45150369 -0.02200405 245.78461547 -0.02783595 252.11776733 -0.0372467 C259.83525529 -0.04846237 267.55258051 -0.04543578 275.27004981 -0.02412373 C279.2080441 -0.01360743 283.14576699 -0.00950119 287.08375931 -0.02272034 C290.68864784 -0.03463835 294.29301337 -0.02809208 297.89785445 -0.00681013 C299.8197956 -0.0002243 301.74177304 -0.01328558 303.66367626 -0.02703905 C310.02640399 0.03098475 314.16146661 0.11272771 318.94262695 4.50793457 C322.00345873 8.36003463 322.30208025 11.26784408 322.2355957 16.12121582 C322.22592773 17.36838379 322.21625977 18.61555176 322.20629883 19.9005127 C322.18116211 21.19408691 322.15602539 22.48766113 322.13012695 23.82043457 C322.1165918 25.13334473 322.10305664 26.44625488 322.08911133 27.7989502 C322.05380138 31.03569534 322.00447976 34.27160562 321.94262695 37.50793457 C320.93844727 37.98102051 319.93426758 38.45410645 318.8996582 38.94152832 C283.66755844 55.84929733 258.46830105 84.07602221 245.16088867 120.65686035 C237.26987396 143.65764767 235.40611935 168.60001809 239.94262695 192.50793457 C240.06089844 193.15327148 240.17916992 193.7986084 240.30102539 194.46350098 C244.35337435 215.92651461 253.4464375 235.60633944 266.86450195 252.78918457 C269.02594396 255.61693577 270.98093155 258.53926967 272.94262695 261.50793457 C237.02629774 261.59949939 201.10998901 261.66997801 165.1935671 261.71219589 C160.95285639 261.71719869 156.71214591 261.72237598 152.47143555 261.72766113 C151.62719005 261.72871037 150.78294455 261.72975962 149.91311586 261.73084065 C136.24501444 261.74824366 122.57698034 261.77978078 108.90891886 261.81654575 C94.88317051 261.85395807 80.85745742 261.87617104 66.83166122 261.88428855 C58.17767416 261.88977572 49.5238774 261.90710353 40.86994892 261.93960044 C34.93480718 261.96075192 28.99976375 261.96713319 23.06458706 261.96194008 C19.64076494 261.95937926 16.21727528 261.96329172 12.79351234 261.98475647 C9.07822189 262.00464786 5.36374669 261.99987567 1.6484375 261.98895264 C0.57060186 262.000604 -0.50723377 262.01225537 -1.61773109 262.02425981 C-7.84592608 261.97474289 -13.07030581 261.51662089 -18.05737305 257.50793457 C-23.11809687 252.07204181 -23.77973225 246.69391238 -23.68556213 239.51290894 C-23.69265652 238.53433792 -23.69975091 237.5557669 -23.70706028 236.54754221 C-23.72459978 233.28312097 -23.70655544 230.01989671 -23.68847656 226.75549316 C-23.69361683 224.40939289 -23.70089891 222.06329649 -23.7101593 219.71720886 C-23.72866546 213.35576674 -23.71574001 206.99474402 -23.696069 200.63331938 C-23.68134073 194.65013851 -23.68729251 188.66698797 -23.69212591 182.68379886 C-23.70068484 170.82986141 -23.68404284 158.97608954 -23.65429688 147.12219238 C-23.62544828 135.62570241 -23.61838311 124.12945083 -23.63378906 112.63293457 C-23.65055571 100.10391272 -23.65458176 87.57500394 -23.6370787 75.04597914 C-23.62792948 68.41716538 -23.62387786 61.78843653 -23.63311958 55.15961838 C-23.64077568 48.929671 -23.62867782 42.70006735 -23.60127068 36.4701786 C-23.59437935 34.18287107 -23.59429683 31.89553148 -23.60148621 29.60822487 C-23.6101639 26.48809621 -23.59425244 23.36903247 -23.57203674 20.24899292 C-23.58027751 19.34199028 -23.58851828 18.43498765 -23.59700876 17.50050008 C-23.52498738 12.02739697 -22.82846228 8.7592567 -19.05737305 4.50793457 C-13.52391509 -0.81940937 -7.23133288 -0.05174868 0 0 Z " fill="#FEFEFE" transform="translate(308.057373046875,375.4920654296875)"/>
<path d="M0 0 C4.86377753 3.74125548 9.24591134 7.97800152 13.63330078 12.25634766 C14.35001953 12.89958984 15.06673828 13.54283203 15.80517578 14.20556641 C32.91042157 29.97660302 43.63861005 55.76215205 44.75585938 78.78149414 C45.59525171 107.17076044 39.46543634 133.30551449 20.63330078 155.25634766 C19.93333984 156.07748047 19.23337891 156.89861328 18.51220703 157.74462891 C0.57736059 178.22827501 -23.96596907 191.95556603 -51.36669922 194.25634766 C-65.50930795 195.18086902 -78.78645696 194.4009258 -92.36669922 190.25634766 C-93.053125 190.0473584 -93.73955078 189.83836914 -94.44677734 189.62304688 C-121.20438769 181.15825782 -143.23539184 161.97732216 -156.42333984 137.27734375 C-169.31910012 111.51761747 -170.93010968 81.68604111 -162.67919922 54.25634766 C-154.52767027 31.55510856 -139.46951282 9.64726052 -118.36669922 -2.74365234 C-117.76519043 -3.09766113 -117.16368164 -3.45166992 -116.54394531 -3.81640625 C-80.34663053 -24.81348775 -34.43890251 -25.03259275 0 0 Z " fill="#FEFEFE" transform="translate(746.36669921875,454.74365234375)"/>
<path d="M0 0 C1.56998334 1.32451363 3.13281686 2.65756029 4.6875 4 C5.42226563 4.59039062 6.15703125 5.18078125 6.9140625 5.7890625 C28.10708603 23.3875096 37.88340187 48.88155842 43.6875 75 C43.6875 101.07 43.6875 127.14 43.6875 154 C-30.8925 154 -105.4725 154 -182.3125 154 C-182.3125 43.90923825 -182.3125 43.90923825 -149.3125 10 C-110.24502856 -28.66112329 -43.78026027 -34.40359436 0 0 Z " fill="#FEFEFE" transform="translate(526.3125,183)"/>
<path d="M0 0 C9.81653295 7.50206583 17.05757642 16.63982737 19.75 28.875 C20.69659023 44.39287269 18.98294513 56.52710379 8.75 68.875 C6.03716518 71.82736644 3.2285671 74.65107976 0.13822937 77.20918274 C-1.43080128 78.76131834 -1.43080128 78.76131834 -1.38298035 80.79850769 C-1.26972916 81.52524185 -1.15647797 82.25197601 -1.03979492 83.00073242 C-0.85926826 84.24429756 -0.85926826 84.24429756 -0.6750946 85.51298523 C-0.45500481 86.85813957 -0.45500481 86.85813957 -0.23046875 88.23046875 C-0.09304764 89.16490311 0.04437347 90.09933746 0.18595886 91.06208801 C0.62899687 94.06484912 1.09378634 97.06364738 1.5625 100.0625 C7.04847954 135.55949997 7.04847954 135.55949997 2.625 143.625 C-0.55183516 147.71337025 -4.34824646 150.24108215 -9.25 151.875 C-13.87588957 152.12748588 -18.50411772 152.14588946 -23.13598633 152.17016602 C-24.66147154 152.1816553 -26.18691752 152.20205882 -27.7121582 152.23168945 C-43.48987609 152.53803629 -43.48987609 152.53803629 -50.25 147.875 C-56.0941325 141.72328158 -56.63433575 136.69450844 -56.47216797 128.46630859 C-56.16388233 120.47041031 -55.14252631 112.52839612 -54.16870117 104.59155273 C-53.80853121 101.65514304 -53.46085662 98.71745128 -53.11523438 95.77929688 C-52.89133288 93.90095715 -52.66674905 92.02269861 -52.44140625 90.14453125 C-52.33719864 89.2716597 -52.23299103 88.39878815 -52.12562561 87.49946594 C-52.02559738 86.68729111 -51.92556915 85.87511627 -51.82250977 85.03833008 C-51.73590591 84.32856522 -51.64930206 83.61880035 -51.56007385 82.88752747 C-51.24468782 80.84052142 -50.78369972 78.87519422 -50.25 76.875 C-50.82105469 76.62234375 -51.39210938 76.3696875 -51.98046875 76.109375 C-62.09439929 70.60851088 -67.4366699 59.83772895 -71.125 49.3984375 C-74.45134485 36.69364814 -71.78648242 24.8136458 -65.4375 13.5625 C-59.06555244 3.63116029 -49.73247087 -3.62498407 -38.203125 -6.65234375 C-24.81102956 -8.7957876 -11.56741123 -7.516152 0 0 Z " fill="#000000" transform="translate(483.25,433.125)"/>
<path d="M0 0 C4.2923264 3.11404072 6.51820475 6.30461425 8.1875 11.3125 C8.390625 13.36328125 8.390625 13.36328125 8.4375 15.625 C8.47617187 16.73294922 8.47617187 16.73294922 8.515625 17.86328125 C7.57560595 24.87985203 2.79826869 29.04551346 -2.0625 33.6875 C-3.36193597 34.94266661 -4.65881652 36.20048417 -5.953125 37.4609375 C-6.81212402 38.28343994 -6.81212402 38.28343994 -7.68847656 39.12255859 C-9.44406065 40.93262633 -11.06750978 42.77165203 -12.70166016 44.68847656 C-18.30664707 51.13387812 -24.4173911 57.1027508 -30.4453125 63.1484375 C-31.41925272 64.12661879 -31.41925272 64.12661879 -32.4128685 65.12456131 C-35.83944889 68.56604018 -39.26882214 72.00470563 -42.70068359 75.44091797 C-46.23921596 78.98496525 -49.76835219 82.53821937 -53.29544258 86.09364891 C-56.01847375 88.83529173 -58.74817804 91.57021526 -61.47976303 94.30333328 C-62.7843837 95.61097713 -64.08650698 96.92111762 -65.38605118 98.23380661 C-67.19974583 100.06455324 -69.02266517 101.88560423 -70.84814453 103.70458984 C-71.38021515 104.24587524 -71.91228577 104.78716064 -72.46047974 105.34484863 C-76.62713429 109.46524235 -80.30262226 111.58127477 -86.1875 111.6875 C-86.89648438 111.71585938 -87.60546875 111.74421875 -88.3359375 111.7734375 C-96.53547269 110.24734104 -102.1802927 103.39672302 -107.796875 97.76171875 C-108.74339256 96.81977108 -109.69027833 95.87819327 -110.63751221 94.93696594 C-112.61251584 92.97085533 -114.58180012 90.99922843 -116.54736328 89.02368164 C-119.05606287 86.50347846 -121.58029699 83.99951059 -124.10927963 81.49968243 C-126.0655602 79.56181789 -128.01237107 77.6146501 -129.95661163 75.66471291 C-131.33071446 74.290384 -132.71334119 72.92459448 -134.09613037 71.55900574 C-139.81473871 65.7763862 -143.33106882 61.64538063 -144.25 53.375 C-144.00067319 48.01447348 -142.00693568 43.60926688 -138.3046875 39.734375 C-134.01148362 36.25987512 -129.33176704 34.76143434 -123.8125 35.3125 C-117.29556414 37.26241232 -113.56967176 39.85634775 -108.90625 44.73046875 C-108.29608032 45.34771317 -107.68591064 45.96495758 -107.05725098 46.60090637 C-105.13016969 48.55575295 -103.2213083 50.52732374 -101.3125 52.5 C-100.00117013 53.83643562 -98.68868055 55.17173435 -97.375 56.50585938 C-94.17394217 59.76174928 -90.98909615 63.032747 -87.8125 66.3125 C-83.63991081 64.67562397 -80.84824927 61.61919032 -77.76171875 58.4921875 C-77.18468704 57.91469757 -76.60765533 57.33720764 -76.01313782 56.74221802 C-74.79292338 55.51898633 -73.57513649 54.29332895 -72.35961914 53.06542969 C-70.5220724 51.20978973 -68.67681462 49.36211463 -66.83007812 47.515625 C-61.63772068 42.30739849 -56.5320576 37.09464763 -51.75610352 31.49853516 C-47.29519868 26.48120795 -42.53912182 21.73471267 -37.81591797 16.96582031 C-36.56181439 15.69509098 -35.31310988 14.41901088 -34.06982422 13.13769531 C-32.24887629 11.26162524 -30.41168757 9.40287484 -28.5703125 7.546875 C-28.02625763 6.98015076 -27.48220276 6.41342651 -26.92166138 5.82952881 C-19.18208835 -1.86899125 -10.14554624 -5.12685386 0 0 Z " fill="#010101" transform="translate(752.8125,490.6875)"/>
<path d="M0 0 C5.28 0 10.56 0 16 0 C16 32.01 16 64.02 16 97 C10.72 97 5.44 97 0 97 C-3.15144022 90.89346958 -5.87332584 84.68950683 -8.4765625 78.33203125 C-9.09354507 76.83527107 -9.09354507 76.83527107 -9.72299194 75.30827332 C-11.02647005 72.14416312 -12.32576711 68.97835536 -13.625 65.8125 C-14.504939 63.67501931 -15.38514478 61.53764843 -16.265625 59.40039062 C-17.87611113 55.48869279 -19.48571719 51.57663894 -21.09228516 47.66333008 C-21.41331207 46.88137772 -21.73433899 46.09942535 -22.06509399 45.29377747 C-23.05424457 42.86691179 -24.02669451 40.43326372 -25 38 C-25.33 57.47 -25.66 76.94 -26 97 C-31.28 97 -36.56 97 -42 97 C-42 65.32 -42 33.64 -42 1 C-36.06 1 -30.12 1 -24 1 C-23.40985107 2.44769775 -22.81970215 3.89539551 -22.21166992 5.38696289 C-20.0150319 10.77507702 -17.81757424 16.16285655 -15.61987305 21.55053711 C-14.67010618 23.87922237 -13.72055947 26.20799745 -12.77124023 28.53686523 C-11.40406706 31.89070074 -10.03609378 35.24420894 -8.66796875 38.59765625 C-8.03498116 40.15118553 -8.03498116 40.15118553 -7.38920593 41.73609924 C-6.98901749 42.71658737 -6.58882904 43.6970755 -6.17651367 44.70727539 C-5.82787766 45.56221085 -5.47924164 46.4171463 -5.12004089 47.29798889 C-3.77462064 50.5437101 -2.38404552 53.77056045 -1 57 C-0.67 38.19 -0.34 19.38 0 0 Z " fill="#010101" transform="translate(517,766)"/>
<path d="M0 0 C0.79075928 0.00523682 1.58151855 0.01047363 2.39624023 0.01586914 C3.67724609 0.02070312 3.67724609 0.02070312 4.98413086 0.02563477 C5.88196289 0.03401367 6.77979492 0.04239258 7.70483398 0.05102539 C8.6065332 0.05553711 9.50823242 0.06004883 10.43725586 0.06469727 C12.67234712 0.07652315 14.90730835 0.09300319 17.14233398 0.11352539 C19.84598708 10.79718173 22.54951645 21.48086938 25.25288963 32.16459656 C26.50829508 37.12594098 27.76374248 42.08727478 29.01928711 47.04858398 C30.23187726 51.8401643 31.44435544 56.63177293 32.65675735 61.42340088 C33.11838452 63.24775188 33.58005142 65.07209282 34.04175949 66.89642334 C34.69046246 69.45964917 35.33902168 72.02291132 35.98754883 74.58618164 C36.17672379 75.33353073 36.36589874 76.08087982 36.56080627 76.85087585 C36.91638595 78.2565216 37.27030541 79.66258864 37.62235641 81.06912231 C37.97709868 82.46386745 38.34365557 83.85564775 38.72044754 85.24459839 C39.74635858 89.095975 40.14233398 92.06292699 40.14233398 96.11352539 C34.53233398 96.11352539 28.92233398 96.11352539 23.14233398 96.11352539 C21.82233398 89.51352539 20.50233398 82.91352539 19.14233398 76.11352539 C11.22233398 76.11352539 3.30233398 76.11352539 -4.85766602 76.11352539 C-5.29079102 78.83602539 -5.29079102 78.83602539 -5.73266602 81.61352539 C-6.52240018 86.57756874 -7.62697976 91.19078035 -8.85766602 96.11352539 C-14.46766602 96.11352539 -20.07766602 96.11352539 -25.85766602 96.11352539 C-25.22094965 91.01979445 -24.59961331 86.58402631 -23.37060547 81.6953125 C-23.06971512 80.48882553 -22.76882477 79.28233856 -22.45881653 78.03929138 C-22.12965308 76.7397853 -21.80035973 75.44031212 -21.47094727 74.14086914 C-21.12764504 72.77260232 -20.78473215 71.40423777 -20.44218445 70.03578186 C-19.5396158 66.43506893 -18.63122551 62.83584867 -17.72174072 59.23687744 C-16.99708441 56.36511505 -16.27666612 53.49229816 -15.55644417 50.61942101 C-13.34029548 41.77984234 -11.10595317 32.94498262 -8.85766602 24.11352539 C-8.5498822 22.90416321 -8.24209839 21.69480103 -7.92498779 20.4487915 C-7.0882024 17.17044961 -6.24586618 13.8936048 -5.40063477 10.61743164 C-5.15485184 9.65554428 -4.90906891 8.69365692 -4.65583801 7.70262146 C-4.43135483 6.83863235 -4.20687164 5.97464325 -3.97558594 5.08447266 C-3.78236252 4.33577408 -3.5891391 3.5870755 -3.39006042 2.81568909 C-2.66576713 0.49998906 -2.4564311 0.15011703 0 0 Z " fill="#020202" transform="translate(149.857666015625,766.886474609375)"/>
<path d="M0 0 C6.6 0 13.2 0 20 0 C28.63598633 34.54394531 28.63598633 34.54394531 29.16738319 36.66959381 C29.52094064 38.08378287 29.87453644 39.49796234 30.22817039 40.91213226 C31.1103397 44.44009896 31.99184638 47.96822865 32.87197876 51.4967041 C34.42831155 57.73340873 35.98860548 63.96892175 37.575284 70.1979866 C38.07835845 72.17361047 38.57960701 74.14968869 39.08030701 76.12591553 C39.69643299 78.55484069 40.31624332 80.98283524 40.94032288 83.409729 C41.21259201 84.48591492 41.48486115 85.56210083 41.76538086 86.67089844 C42.12471962 88.07683258 42.12471962 88.07683258 42.49131775 89.51116943 C43 92 43 92 43 96 C37.39 96 31.78 96 26 96 C24.68 89.4 23.36 82.8 22 76 C14.08 76 6.16 76 -2 76 C-2.433125 78.7225 -2.433125 78.7225 -2.875 81.5 C-3.66473417 86.46404334 -4.76931374 91.07725496 -6 96 C-11.61 96 -17.22 96 -23 96 C-21.875 87 -21.875 87 -21.04454041 83.69714355 C-20.85805435 82.94570068 -20.6715683 82.19425781 -20.47943115 81.42004395 C-20.27731018 80.62594116 -20.07518921 79.83183838 -19.86694336 79.01367188 C-19.65221878 78.15418945 -19.4374942 77.29470703 -19.21626282 76.40917969 C-18.5119171 73.59456302 -17.8009369 70.78166881 -17.08984375 67.96875 C-16.59761574 66.00730545 -16.10580573 64.04575595 -15.61439514 62.08410645 C-14.32475429 56.94075888 -13.0294651 51.79885029 -11.73297119 46.65722656 C-10.40904331 41.40255448 -9.09049445 36.14653326 -7.77148438 30.890625 C-5.18623451 20.5924251 -2.59451607 10.2958693 0 0 Z " fill="#010101" transform="translate(739,767)"/>
<path d="M0 0 C5.28 0 10.56 0 16 0 C16 32.01 16 64.02 16 97 C10.72 97 5.44 97 0 97 C0 83.14 0 69.28 0 55 C-8.25 55 -16.5 55 -25 55 C-25 68.86 -25 82.72 -25 97 C-30.28 97 -35.56 97 -41 97 C-41 65.32 -41 33.64 -41 1 C-35.72 1 -30.44 1 -25 1 C-25 13.54 -25 26.08 -25 39 C-16.75 39 -8.5 39 0 39 C0 26.13 0 13.26 0 0 Z " fill="#000000" transform="translate(378,766)"/>
<path d="M0 0 C5.61 0 11.22 0 17 0 C17.01458252 2.17996582 17.02916504 4.35993164 17.04418945 6.60595703 C17.09458638 13.818507 17.16119044 21.03084223 17.23571491 28.24318123 C17.28039182 32.61490145 17.31965377 36.98652906 17.34643555 41.35839844 C17.37249539 45.57960838 17.41291653 49.80046143 17.46318626 54.02145004 C17.4798369 55.62969388 17.49136241 57.23799942 17.49761391 58.84631729 C17.5072749 61.10381499 17.53535629 63.36040335 17.56762695 65.61767578 C17.57873001 66.90118927 17.58983307 68.18470276 17.60127258 69.5071106 C18.03472594 73.30420249 19.03239279 75.74449652 21 79 C24.15506911 81.39350071 27.1317651 81.46418819 31 81 C34.61368028 79.19315986 36.54776087 78.05940193 38.15194702 74.30148315 C39.08048785 70.68665956 39.27901392 67.53236274 39.31884766 63.80126953 C39.33391609 62.76120003 39.33391609 62.76120003 39.34928894 61.70011902 C39.37996958 59.42769129 39.39711343 57.15538054 39.4140625 54.8828125 C39.43278636 53.29954024 39.45236068 51.71627784 39.4727478 50.13302612 C39.52394644 45.9804466 39.56363754 41.82783478 39.60089111 37.67510986 C39.64100796 33.43176359 39.69206516 29.18855029 39.7421875 24.9453125 C39.83880148 16.63029273 39.92224042 8.31521749 40 0 C45.28 0 50.56 0 56 0 C56.09070716 9.58879299 56.16394891 19.17729665 56.20724869 28.76642323 C56.22804024 33.22001519 56.25620175 37.67329602 56.30175781 42.12670898 C56.34551906 46.43206996 56.36920037 50.73713343 56.37950897 55.04269981 C56.38684644 56.67760584 56.40117348 58.31249731 56.42292023 59.94727516 C56.56222647 70.86284278 56.39386645 81.26379005 48.875 89.9375 C41.36141131 96.53170442 33.3554662 97.66720792 23.56640625 97.390625 C16.71116094 96.63977666 10.89940394 93.89940394 6 89 C-0.89572744 78.95194001 -0.2746982 67.83720402 -0.1953125 56.15234375 C-0.19157618 54.52853063 -0.18873214 52.90471524 -0.18673706 51.28089905 C-0.1791493 47.03453196 -0.15954329 42.78830458 -0.1373291 38.54199219 C-0.11676528 34.19793588 -0.10771294 29.85385671 -0.09765625 25.50976562 C-0.07629217 17.00643958 -0.04115039 8.50325334 0 0 Z " fill="#020202" transform="translate(199,767)"/>
<path d="M0 0 C15.51 0 31.02 0 47 0 C47 5.28 47 10.56 47 16 C37.1 16 27.2 16 17 16 C17 23.59 17 31.18 17 39 C25.58 39 34.16 39 43 39 C43 43.95 43 48.9 43 54 C34.42 54 25.84 54 17 54 C17 62.58 17 71.16 17 80 C27.23 80 37.46 80 48 80 C48 85.28 48 90.56 48 96 C32.16 96 16.32 96 0 96 C0 64.32 0 32.64 0 0 Z " fill="#030303" transform="translate(412,767)"/>
<path d="M0 0 C15.51 0 31.02 0 47 0 C47 5.28 47 10.56 47 16 C37.1 16 27.2 16 17 16 C17 23.92 17 31.84 17 40 C25.25 40 33.5 40 42 40 C42 44.95 42 49.9 42 55 C33.75 55 25.5 55 17 55 C17 63.58 17 72.16 17 81 C26.9 81 36.8 81 47 81 C47 86.28 47 91.56 47 97 C31.49 97 15.98 97 0 97 C0 64.99 0 32.98 0 0 Z " fill="#030303" transform="translate(853,766)"/>
<path d="M0 0 C6.65479862 5.46069161 8.63570309 13.00761275 9.625 21.3125 C9.625 23.2925 9.625 25.2725 9.625 27.3125 C4.015 27.3125 -1.595 27.3125 -7.375 27.3125 C-7.601875 25.600625 -7.82875 23.88875 -8.0625 22.125 C-8.75852136 18.4507648 -9.36087984 16.335004 -11.375 13.125 C-15.70029974 10.51179807 -19.45017404 10.30809471 -24.375 11.3125 C-28.68960058 14.36867541 -30.06659349 17.29545257 -31.375 22.3125 C-31.66497011 25.55090761 -31.67912999 28.77352814 -31.67578125 32.0234375 C-31.68006638 32.95040436 -31.6843515 33.87737122 -31.68876648 34.83242798 C-31.69449205 36.78736558 -31.69502315 38.74232448 -31.69067383 40.69726562 C-31.68751757 43.67094704 -31.7109825 46.64362914 -31.73632812 49.6171875 C-31.73860183 51.52343626 -31.73930428 53.42968766 -31.73828125 55.3359375 C-31.747491 56.2163974 -31.75670074 57.0968573 -31.76618958 58.0039978 C-31.72346251 63.77239318 -30.81765264 68.06182986 -28.375 73.3125 C-25.76917344 75.79712532 -24.01210242 77.2178698 -20.34765625 77.4296875 C-16.18135165 77.07279735 -13.34348798 76.21888572 -10.375 73.3125 C-9.24853193 70.37502471 -9.24853193 70.37502471 -8.625 67.125 C-8.00625 64.2478125 -8.00625 64.2478125 -7.375 61.3125 C-1.765 61.3125 3.845 61.3125 9.625 61.3125 C8.82607335 78.48942308 8.82607335 78.48942308 3.015625 85.16015625 C-4.85992886 92.25163948 -12.51363144 93.69286392 -22.83203125 93.5859375 C-31.23041527 92.93777115 -37.87709168 88.58335688 -43.375 82.3125 C-50.36273971 71.7168472 -49.72628079 57.38150361 -49.69067383 45.1472168 C-49.68750819 42.88085985 -49.71109644 40.6158069 -49.73632812 38.34960938 C-49.79223257 25.67179038 -49.36091424 12.1686717 -40.375 2.3125 C-29.16401255 -8.23767721 -12.62673571 -8.56564142 0 0 Z " fill="#030303" transform="translate(697.375,770.6875)"/>
<path d="M0 0 C7.41460363 -0.02255577 14.82918865 -0.04091784 22.24381924 -0.05181217 C25.68640348 -0.05703982 29.12896312 -0.06413531 32.5715332 -0.07543945 C36.52555043 -0.08834235 40.47955756 -0.09322918 44.43359375 -0.09765625 C46.29605995 -0.10539818 46.29605995 -0.10539818 48.19615173 -0.11329651 C49.33725906 -0.11337204 50.47836639 -0.11344757 51.65405273 -0.11352539 C52.664431 -0.115746 53.67480927 -0.11796661 54.71580505 -0.12025452 C57 0 57 0 58 1 C58.07320163 3.5327765 58.09227569 6.03103918 58.0625 8.5625 C58.041875 11.016875 58.02125 13.47125 58 16 C51.07 16 44.14 16 37 16 C37 42.73 37 69.46 37 97 C31.39 97 25.78 97 20 97 C20 70.27 20 43.54 20 16 C13.4 16 6.8 16 0 16 C0 10.72 0 5.44 0 0 Z " fill="#060606" transform="translate(546,766)"/>
<path d="M0 0 C18.81 0 37.62 0 57 0 C57 4.95 57 9.9 57 15 C50.4 15 43.8 15 37 15 C37 41.73 37 68.46 37 96 C31.39 96 25.78 96 20 96 C20 69.27 20 42.54 20 15 C13.4 15 6.8 15 0 15 C0 10.05 0 5.1 0 0 Z " fill="#030303" transform="translate(267,767)"/>
<path d="M0 0 C19.14 0 38.28 0 58 0 C58 4.95 58 9.9 58 15 C51.07 15 44.14 15 37 15 C37 41.73 37 68.46 37 96 C31.72 96 26.44 96 21 96 C21 69.27 21 42.54 21 15 C14.07 15 7.14 15 0 15 C0 10.05 0 5.1 0 0 Z " fill="#000000" transform="translate(782,767)"/>
<path d="M0 0 C5.28 0 10.56 0 16 0 C16 32.01 16 64.02 16 97 C10.72 97 5.44 97 0 97 C0 64.99 0 32.98 0 0 Z " fill="#010101" transform="translate(616,766)"/>
<path d="M0 0 C0.66 0 1.32 0 2 0 C3.14201955 5.0897321 4.28128208 10.18007035 5.41796875 15.27099609 C5.80522736 17.00358851 6.19324526 18.7360114 6.58203125 20.46826172 C7.14000906 22.95496383 7.69527339 25.44225838 8.25 27.9296875 C8.42499023 28.70682098 8.59998047 29.48395447 8.78027344 30.28463745 C10 35.77225659 10 35.77225659 10 38 C4.06 38 -1.88 38 -8 38 C-7.59007812 36.09476563 -7.18015625 34.18953125 -6.7578125 32.2265625 C-6.21350479 29.69271626 -5.66923602 27.15886164 -5.125 24.625 C-4.85558594 23.37332031 -4.58617187 22.12164063 -4.30859375 20.83203125 C-2.82010842 13.8978679 -1.36276145 6.96003503 0 0 Z " fill="#F8F8F8" transform="translate(748,790)"/>
<path d="M0 0 C0.33 0 0.66 0 1 0 C2.14201955 5.0897321 3.28128208 10.18007035 4.41796875 15.27099609 C4.80522736 17.00358851 5.19324526 18.7360114 5.58203125 20.46826172 C6.14000906 22.95496383 6.69527339 25.44225838 7.25 27.9296875 C7.42499023 28.70682098 7.59998047 29.48395447 7.78027344 30.28463745 C9 35.77225659 9 35.77225659 9 38 C3.06 38 -2.88 38 -9 38 C-7.8824262 32.74816684 -6.76263814 27.4969136 -5.63696289 22.24682617 C-5.2544323 20.45935321 -4.87324405 18.67159245 -4.4934082 16.88354492 C-3.9483241 14.31873587 -3.39847653 11.75498866 -2.84765625 9.19140625 C-2.6778273 8.3872377 -2.50799835 7.58306915 -2.33302307 6.75453186 C-1.11387171 1.11387171 -1.11387171 1.11387171 0 0 Z " fill="#F6F6F6" transform="translate(157,790)"/>
</svg>
